<?xml version="1.0" encoding="us-ascii" standalone="no"?><svg xmlns="http://www.w3.org/2000/svg" xmlns:xlink="http://www.w3.org/1999/xlink" contentStyleType="text/css" height="441px" preserveAspectRatio="none" style="width:566px;height:441px;background:#FFFFFF;" version="1.1" viewBox="0 0 566 441" width="566px" zoomAndPan="magnify"><defs/><g><line style="stroke:#181818;stroke-width:0.5;stroke-dasharray:5.0,5.0;" x1="48" x2="48" y1="36.2969" y2="405.8906"/><line style="stroke:#181818;stroke-width:0.5;stroke-dasharray:5.0,5.0;" x1="298" x2="298" y1="36.2969" y2="405.8906"/><line style="stroke:#181818;stroke-width:0.5;stroke-dasharray:5.0,5.0;" x1="506" x2="506" y1="36.2969" y2="405.8906"/><rect fill="#E2E2F0" height="30.2969" rx="2.5" ry="2.5" style="stroke:#181818;stroke-width:0.5;" width="86" x="5" y="5"/><text fill="#000000" font-family="sans-serif" font-size="14" lengthAdjust="spacing" textLength="72" x="12" y="24.9951">Gebruiker</text><rect fill="#E2E2F0" height="30.2969" rx="2.5" ry="2.5" style="stroke:#181818;stroke-width:0.5;" width="86" x="5" y="404.8906"/><text fill="#000000" font-family="sans-serif" font-size="14" lengthAdjust="spacing" textLength="72" x="12" y="424.8857">Gebruiker</text><rect fill="#E2E2F0" height="30.2969" rx="2.5" ry="2.5" style="stroke:#181818;stroke-width:0.5;" width="138" x="229" y="5"/><text fill="#000000" font-family="sans-serif" font-size="14" lengthAdjust="spacing" textLength="124" x="236" y="24.9951">VragenController</text><rect fill="#E2E2F0" height="30.2969" rx="2.5" ry="2.5" style="stroke:#181818;stroke-width:0.5;" width="138" x="229" y="404.8906"/><text fill="#000000" font-family="sans-serif" font-size="14" lengthAdjust="spacing" textLength="124" x="236" y="424.8857">VragenController</text><rect fill="#E2E2F0" height="30.2969" rx="2.5" ry="2.5" style="stroke:#181818;stroke-width:0.5;" width="108" x="452" y="5"/><text fill="#000000" font-family="sans-serif" font-size="14" lengthAdjust="spacing" textLength="94" x="459" y="24.9951">VragenModel</text><rect fill="#E2E2F0" height="30.2969" rx="2.5" ry="2.5" style="stroke:#181818;stroke-width:0.5;" width="108" x="452" y="404.8906"/><text fill="#000000" font-family="sans-serif" font-size="14" lengthAdjust="spacing" textLength="94" x="459" y="424.8857">VragenModel</text><polygon fill="#181818" points="286,63.4297,296,67.4297,286,71.4297,290,67.4297" style="stroke:#181818;stroke-width:1.0;"/><line style="stroke:#181818;stroke-width:1.0;" x1="48" x2="292" y1="67.4297" y2="67.4297"/><text fill="#000000" font-family="sans-serif" font-size="13" lengthAdjust="spacing" textLength="77" x="55" y="62.3638">getVragen()</text><polygon fill="#181818" points="494,92.5625,504,96.5625,494,100.5625,498,96.5625" style="stroke:#181818;stroke-width:1.0;"/><line style="stroke:#181818;stroke-width:1.0;" x1="298" x2="500" y1="96.5625" y2="96.5625"/><text fill="#000000" font-family="sans-serif" font-size="13" lengthAdjust="spacing" textLength="125" x="305" y="91.4966">getUnusedVragen()</text><polygon fill="#181818" points="309,121.6953,299,125.6953,309,129.6953,305,125.6953" style="stroke:#181818;stroke-width:1.0;"/><line style="stroke:#181818;stroke-width:1.0;stroke-dasharray:2.0,2.0;" x1="303" x2="505" y1="125.6953" y2="125.6953"/><text fill="#000000" font-family="sans-serif" font-size="13" lengthAdjust="spacing" textLength="45" x="315" y="120.6294">vragen</text><polygon fill="#181818" points="59,150.8281,49,154.8281,59,158.8281,55,154.8281" style="stroke:#181818;stroke-width:1.0;"/><line style="stroke:#181818;stroke-width:1.0;" x1="53" x2="297" y1="154.8281" y2="154.8281"/><text fill="#000000" font-family="sans-serif" font-size="13" lengthAdjust="spacing" textLength="146" x="65" y="149.7622">displayVragen(vragen)</text><polygon fill="#181818" points="286,179.9609,296,183.9609,286,187.9609,290,183.9609" style="stroke:#181818;stroke-width:1.0;"/><line style="stroke:#181818;stroke-width:1.0;" x1="48" x2="292" y1="183.9609" y2="183.9609"/><text fill="#000000" font-family="sans-serif" font-size="13" lengthAdjust="spacing" textLength="226" x="55" y="178.895">submitAnswer(vraag_id, antwoord)</text><polygon fill="#181818" points="494,209.0938,504,213.0938,494,217.0938,498,213.0938" style="stroke:#181818;stroke-width:1.0;"/><line style="stroke:#181818;stroke-width:1.0;" x1="298" x2="500" y1="213.0938" y2="213.0938"/><text fill="#000000" font-family="sans-serif" font-size="13" lengthAdjust="spacing" textLength="184" x="305" y="208.0278">markVraagAsUsed(vraag_id)</text><polygon fill="#181818" points="309,238.2266,299,242.2266,309,246.2266,305,242.2266" style="stroke:#181818;stroke-width:1.0;"/><line style="stroke:#181818;stroke-width:1.0;" x1="303" x2="505" y1="242.2266" y2="242.2266"/><text fill="#000000" font-family="sans-serif" font-size="13" lengthAdjust="spacing" textLength="127" x="315" y="237.1606">vraagGemarkeerd()</text><polygon fill="#181818" points="59,267.3594,49,271.3594,59,275.3594,55,271.3594" style="stroke:#181818;stroke-width:1.0;"/><line style="stroke:#181818;stroke-width:1.0;" x1="53" x2="297" y1="271.3594" y2="271.3594"/><text fill="#000000" font-family="sans-serif" font-size="13" lengthAdjust="spacing" textLength="114" x="65" y="266.2935">redirect('/vragen')</text><polygon fill="#181818" points="286,296.4922,296,300.4922,286,304.4922,290,300.4922" style="stroke:#181818;stroke-width:1.0;"/><line style="stroke:#181818;stroke-width:1.0;" x1="48" x2="292" y1="300.4922" y2="300.4922"/><text fill="#000000" font-family="sans-serif" font-size="13" lengthAdjust="spacing" textLength="97" x="55" y="295.4263">resetGebruikt()</text><polygon fill="#181818" points="494,325.625,504,329.625,494,333.625,498,329.625" style="stroke:#181818;stroke-width:1.0;"/><line style="stroke:#181818;stroke-width:1.0;" x1="298" x2="500" y1="329.625" y2="329.625"/><text fill="#000000" font-family="sans-serif" font-size="13" lengthAdjust="spacing" textLength="126" x="305" y="324.5591">resetGebruiktField()</text><polygon fill="#181818" points="309,354.7578,299,358.7578,309,362.7578,305,358.7578" style="stroke:#181818;stroke-width:1.0;"/><line style="stroke:#181818;stroke-width:1.0;" x1="303" x2="505" y1="358.7578" y2="358.7578"/><text fill="#000000" font-family="sans-serif" font-size="13" lengthAdjust="spacing" textLength="95" x="315" y="353.6919">resetVoltooid()</text><polygon fill="#181818" points="59,383.8906,49,387.8906,59,391.8906,55,387.8906" style="stroke:#181818;stroke-width:1.0;"/><line style="stroke:#181818;stroke-width:1.0;" x1="53" x2="297" y1="387.8906" y2="387.8906"/><text fill="#000000" font-family="sans-serif" font-size="13" lengthAdjust="spacing" textLength="114" x="65" y="382.8247">redirect('/vragen')</text><!--SRC=[dP713e8m38RlFCLkOgBnxi74cCZ98rpDO0rf61lfYiQt5mP1HGp4QzllNx-kaiIOOIKDYmXIgh402ggtQa8o1tEoXibgFTcyM0Kw20PUR0zVs5xam5qnN0VZxelmMNuuDhK3DK9yMsmd7xZvocJsiDfUA7ILbey-jsFMSxkxEYsHZyRTWLf6vbTK6z6Su6ujgGL2fQGYQS6ZYnkj8MGaziDBvX6q2G2aVfplJP508K76uMhN-Qrc1GaSS3_3Ipxe0pWZQ1KkKF5KOZLRY_-9F040]--></g></svg>